<!--?xml version="1.0" encoding="utf-8"?-->
<!-- Generator: Adobe Illustrator 18.1.1, SVG Export Plug-In . SVG Version: 6.00 Build 0)  -->

<svg version="1.1" id="_x31_0" xmlns="http://www.w3.org/2000/svg" xmlns:xlink="http://www.w3.org/1999/xlink" x="0px" y="0px" viewBox="0 0 512 512" style="enable-background:new 0 0 512 512;" xml:space="preserve">
<style type="text/css">
	.st0{fill:#374149;}
</style>
<g>
	<path class="st0" d="M483.192,0H28.899C16.196,0,5.887,10.305,5.887,22.922v146.59V512h49.222V192.523h428.082
		c12.617,0,22.922-10.305,22.922-23.011V22.922C506.113,10.305,495.808,0,483.192,0z M74.605,96.218
		c0-27.722,22.563-50.199,50.282-50.199c27.718,0,50.199,22.477,50.199,50.199c0,27.719-22.481,50.282-50.199,50.282
		C97.168,146.5,74.605,123.938,74.605,96.218z M215.242,96.218c0-27.722,22.566-50.199,50.286-50.199
		c27.718,0,50.195,22.477,50.195,50.199c0,27.719-22.477,50.282-50.195,50.282C237.808,146.5,215.242,123.938,215.242,96.218z
		 M406.164,146.5c-27.719,0-50.286-22.562-50.286-50.282c0-27.722,22.566-50.199,50.286-50.199
		c27.718,0,50.195,22.477,50.195,50.199C456.36,123.938,433.883,146.5,406.164,146.5z" style="fill: rgb(75, 75, 75);"></path>
	<path class="st0" d="M96.816,102.883c3.68,0,6.664-2.985,6.664-6.665c0-2.968,0.618-5.793,1.723-8.363l11.262-11.226
		c2.59-1.11,5.434-1.73,8.426-1.73c3.679,0,6.664-2.984,6.664-6.664s-2.985-6.664-6.664-6.664
		c-19.156,0-34.738,15.543-34.738,34.648C90.152,99.898,93.137,102.883,96.816,102.883z" style="fill: rgb(75, 75, 75);"></path>
	<path class="st0" d="M237.406,102.883c3.68,0,6.664-2.985,6.664-6.665c0-2.968,0.618-5.789,1.723-8.359l11.27-11.234
		c2.586-1.106,5.43-1.726,8.418-1.726c3.68,0,6.664-2.984,6.664-6.664s-2.984-6.664-6.664-6.664
		c-19.156,0-34.738,15.543-34.738,34.648C230.742,99.898,233.727,102.883,237.406,102.883z" style="fill: rgb(75, 75, 75);"></path>
	<path class="st0" d="M406.078,61.57c-19.16,0-34.738,15.543-34.738,34.648c0,3.68,2.985,6.665,6.661,6.665
		c3.679,0,6.664-2.985,6.664-6.665c0-2.968,0.621-5.793,1.722-8.363l11.266-11.226c2.59-1.11,5.434-1.73,8.426-1.73
		c3.676,0,6.66-2.984,6.66-6.664S409.754,61.57,406.078,61.57z" style="fill: rgb(75, 75, 75);"></path>
</g>
</svg>
