<!--?xml version="1.0" encoding="utf-8"?-->
<!-- Generator: Adobe Illustrator 18.1.1, SVG Export Plug-In . SVG Version: 6.00 Build 0)  -->

<svg version="1.1" id="_x32_" xmlns="http://www.w3.org/2000/svg" xmlns:xlink="http://www.w3.org/1999/xlink" x="0px" y="0px" viewBox="0 0 512 512" style="width: 256px; height: 256px; opacity: 1;" xml:space="preserve">
<style type="text/css">
	.st0{fill:#4B4B4B;}
</style>
<g>
	<path class="st0" d="M500.325,211.661l-34.024-54.143c-11.508-18.302-31.61-29.402-53.216-29.402H254.645
		c-26.654,0-52.195,10.719-70.849,29.745l-45.216,46.107L30.738,228.933C12.733,233.11,0,249.147,0,267.615v42.348
		c0,9.122,7.406,16.538,16.538,16.538h57.336c-0.074,1.141-0.185,2.274-0.185,3.425c0,29.8,24.167,53.958,53.977,53.958
		c29.792,0,53.958-24.158,53.958-53.958c0-1.151-0.111-2.284-0.185-3.425h169.67c-0.074,1.141-0.185,2.274-0.185,3.425
		c0,29.8,24.166,53.958,53.958,53.958c29.81,0,53.958-24.158,53.958-53.958c0-1.151-0.092-2.284-0.166-3.425h36.789
		c9.132,0,16.538-7.416,16.538-16.538v-57.81C512,237.824,507.954,223.801,500.325,211.661z M127.666,351.43
		c-11.879,0-21.494-9.643-21.494-21.504c0-11.871,9.615-21.495,21.494-21.495c11.86,0,21.494,9.624,21.494,21.495
		C149.16,341.786,139.526,351.43,127.666,351.43z M264.13,215.754h-97.188l37.198-37.93c13.216-13.476,31.628-21.198,50.505-21.198
		h9.486V215.754z M374.998,215.754h-85.94v-59.128h85.94V215.754z M404.882,351.43c-11.86,0-21.494-9.643-21.494-21.504
		c0-11.871,9.634-21.495,21.494-21.495c11.879,0,21.494,9.624,21.494,21.495C426.376,341.786,416.761,351.43,404.882,351.43z
		 M399.944,215.754v-59.128h13.142c11.879,0,22.756,6.004,29.067,16.065l27.062,43.063H399.944z" style="fill: rgb(75, 75, 75);"></path>
</g>
</svg>
